<svg width="24" height="25" viewBox="0 0 24 25" fill="none" xmlns="http://www.w3.org/2000/svg">
<path d="M11.9995 10.5C13.1041 10.5 13.9995 11.3954 13.9995 12.5C13.9995 13.6046 13.1041 14.5 11.9995 14.5C10.8949 14.5 9.99951 13.6046 9.99951 12.5C9.99951 11.3954 10.8949 10.5 11.9995 10.5Z" stroke="#686B6E" stroke-width="1.5" stroke-linecap="round" stroke-linejoin="round"/>
<path d="M6.90087 7.2469C5.96443 6.70624 4.76701 7.02709 4.22635 7.96353L4.18461 8.03583C3.64375 8.97263 3.96472 10.1705 4.90152 10.7114L5.14431 10.8515C5.71693 11.1821 5.99951 11.8388 5.99951 12.5C5.99951 13.1612 5.71693 13.8179 5.14431 14.1485L4.90152 14.2886C3.96472 14.8295 3.64375 16.0274 4.18461 16.9642L4.22635 17.0365C4.76701 17.9729 5.96443 18.2938 6.90088 17.7531L7.14497 17.6122C7.71755 17.2816 8.42282 17.363 8.99481 17.6946C9.56662 18.026 9.99951 18.6005 9.99951 19.2614V19.5427C9.99951 20.6237 10.8758 21.5 11.9568 21.5H12.0422C13.1232 21.5 13.9995 20.6237 13.9995 19.5427V19.2614C13.9995 18.6005 14.4324 18.0261 15.0042 17.6946C15.5762 17.363 16.2815 17.2816 16.8541 17.6122L17.0982 17.7531C18.0346 18.2938 19.232 17.9729 19.7727 17.0365L19.8144 16.9642C20.3553 16.0274 20.0343 14.8295 19.0975 14.2886L18.8547 14.1485C18.2821 13.8179 17.9995 13.1612 17.9995 12.5C17.9995 11.8388 18.2821 11.1821 18.8547 10.8515L19.0975 10.7114C20.0343 10.1705 20.3553 8.97262 19.8144 8.03581L19.7727 7.96353C19.232 7.02709 18.0346 6.70623 17.0982 7.24689L16.8541 7.38783C16.2815 7.7184 15.5762 7.63699 15.0042 7.30541C14.4324 6.97395 13.9995 6.39952 13.9995 5.73859V5.45728C13.9995 4.3763 13.1232 3.5 12.0422 3.5L11.9568 3.5C10.8758 3.5 9.99951 4.3763 9.99951 5.45727V5.73858C9.99951 6.39952 9.56662 6.97395 8.99481 7.30542C8.42282 7.63699 7.71755 7.7184 7.14497 7.38783L6.90087 7.2469Z" stroke="#686B6E" stroke-width="1.5" stroke-linecap="round" stroke-linejoin="round"/>
</svg>
