<svg width="20" height="20" viewBox="0 0 20 20" fill="none" xmlns="http://www.w3.org/2000/svg">
<path d="M12.0223 13.7136C11.7963 14.0894 11.6663 14.5295 11.6663 15C11.6663 16.3807 12.7856 17.5 14.1663 17.5C15.5471 17.5 16.6663 16.3807 16.6663 15C16.6663 13.6193 15.5471 12.5 14.1663 12.5C13.2561 12.5 12.4595 12.9865 12.0223 13.7136ZM12.0223 13.7136L7.97706 11.2864M7.97706 11.2864C8.20305 10.9106 8.33301 10.4705 8.33301 10C8.33301 9.52952 8.20305 9.0894 7.97706 8.71357M7.97706 11.2864C7.53986 12.0135 6.74324 12.5 5.83301 12.5C4.4523 12.5 3.33301 11.3807 3.33301 10C3.33301 8.61929 4.4523 7.5 5.83301 7.5C6.74324 7.5 7.53986 7.98645 7.97706 8.71357M7.97706 8.71357L12.0223 6.28643M12.0223 6.28643C12.4595 7.01355 13.2561 7.5 14.1663 7.5C15.5471 7.5 16.6663 6.38071 16.6663 5C16.6663 3.61929 15.5471 2.5 14.1663 2.5C12.7856 2.5 11.6663 3.61929 11.6663 5C11.6663 5.47048 11.7963 5.9106 12.0223 6.28643Z" stroke="#686B6E" stroke-width="1.5" stroke-linecap="round" stroke-linejoin="round"/>
</svg>
